<svg width="1440" height="481" viewBox="0 0 1440 481" fill="none" xmlns="http://www.w3.org/2000/svg">
<path d="M41 171.249C45.3196 166.119 47.4794 161.125 47.4794 156.265C47.4794 151.136 45.3196 146.006 41 140.877H180.307C175.717 146.006 173.423 151.136 173.423 156.265C173.423 161.125 175.717 166.119 180.307 171.249H41ZM88.7855 140.877C79.6064 130.348 74.3419 121.034 72.992 112.934C71.6421 104.565 73.262 97.4109 77.8516 91.4714C82.4411 85.262 90.0004 79.7275 100.529 74.868C112.408 69.7384 124.962 65.4189 138.191 61.9092C151.42 58.3995 165.053 55.4298 179.092 53V91.8764C154.794 91.8764 135.356 93.9012 120.778 97.9508C106.469 101.73 99.3146 107.4 99.3146 114.959C99.3146 122.249 107.954 130.888 125.232 140.877H88.7855ZM148.315 171.249C134.006 200.676 126.852 230.104 126.852 259.531C126.852 288.688 134.006 317.98 148.315 347.408H65.7027C80.0114 317.98 87.1657 288.688 87.1657 259.531C87.1657 230.104 80.0114 200.676 65.7027 171.249H148.315Z" fill="black"/>
<path d="M265.583 235.638C256.134 221.869 251.005 209.855 250.195 199.596C249.385 189.337 251.814 180.698 257.484 173.679C263.153 166.659 272.063 160.45 284.211 155.05C295.55 150.191 307.294 146.276 319.443 143.307C331.862 140.337 344.686 137.772 357.915 135.612V172.059C333.347 172.059 312.964 174.489 296.765 179.348C280.567 183.938 269.903 190.957 264.773 200.406C259.644 209.855 261.264 221.599 269.633 235.638H265.583ZM295.55 140.877C279.082 175.164 270.848 209.585 270.848 244.142C270.848 278.429 279.082 312.851 295.55 347.408H206.864C223.332 312.851 231.566 278.429 231.566 244.142C231.566 209.585 223.332 175.164 206.864 140.877H295.55Z" fill="black"/>
<path d="M540.059 207.291C549.238 214.58 555.043 220.789 557.472 225.919C560.172 230.778 560.037 234.963 557.067 238.473C554.098 241.712 548.698 244.412 540.869 246.572C531.15 249.542 520.216 251.971 508.067 253.861C496.188 255.751 483.769 257.776 470.81 259.936V226.324C491.329 226.324 507.392 225.919 519.001 225.109C530.61 224.029 538.304 222.139 542.084 219.44C546.133 216.74 544.784 212.69 538.034 207.291H540.059ZM540.059 258.721C550.048 272.76 555.853 284.908 557.472 295.167C559.092 305.426 557.337 313.931 552.208 320.68C547.078 327.429 538.979 333.369 527.91 338.498C518.731 342.278 509.282 345.383 499.563 347.813C489.844 350.242 479.855 352.402 469.596 354.292V319.465C489.034 319.465 505.097 317.305 517.786 312.986C530.745 308.666 539.114 302.052 542.894 293.143C546.943 283.963 545.323 272.49 538.034 258.721H540.059ZM594.324 206.076C582.445 229.564 576.506 253.186 576.506 276.944C576.506 300.432 582.445 323.92 594.324 347.408H517.786C529.935 323.92 536.009 300.432 536.009 276.944C536.009 253.186 529.935 229.564 517.786 206.076H594.324ZM408.851 210.935C400.212 201.486 395.082 193.252 393.463 186.233C392.113 178.943 393.463 172.734 397.512 167.604C401.832 162.205 408.851 157.345 418.57 153.026C429.099 148.436 440.573 144.656 452.992 141.687C465.681 138.717 479.045 136.017 493.083 133.588V166.389C470.675 166.389 452.992 168.279 440.033 172.059C427.344 175.569 421.135 180.698 421.405 187.447C421.945 194.197 429.909 202.026 445.298 210.935H408.851ZM538.034 206.076C553.153 198.246 560.982 191.362 561.522 185.423C562.062 179.213 556.257 174.489 544.109 171.249C531.96 168.009 514.951 166.389 493.083 166.389V133.588C506.852 136.017 519.946 138.717 532.365 141.687C544.784 144.656 556.392 148.301 567.191 152.621C576.371 156.67 582.715 161.125 586.225 165.984C590.004 170.844 591.084 176.648 589.464 183.398C587.845 189.877 582.85 197.437 574.481 206.076H538.034ZM436.794 289.498C421.945 295.437 413.576 300.702 411.686 305.292C409.796 309.611 413.981 313.121 424.24 315.821C434.499 318.25 449.617 319.465 469.596 319.465V354.292C460.686 352.402 451.912 350.377 443.273 348.218C434.634 346.328 426.805 344.303 419.785 342.143C412.766 339.983 406.016 337.419 399.537 334.449C392.248 331.209 387.388 327.564 384.958 323.515C382.529 319.195 382.394 314.336 384.553 308.936C386.983 303.267 392.248 296.787 400.347 289.498H436.794ZM400.347 289.498C392.248 282.479 387.118 276.269 384.958 270.87C382.799 265.2 382.934 260.341 385.363 256.291C388.063 252.241 393.058 248.597 400.347 245.357C406.826 242.387 413.576 239.958 420.595 238.068C427.884 235.908 435.714 233.883 444.083 231.993C452.722 230.104 461.631 228.214 470.81 226.324V259.936C450.562 259.936 435.309 261.151 425.05 263.58C414.791 266.01 410.471 269.52 412.091 274.109C413.981 278.429 422.215 283.559 436.794 289.498H400.347Z" fill="black"/>
<path d="M700.867 244.142C693.308 260.881 691.148 275.054 694.388 286.663C697.627 298.002 705.187 306.641 717.065 312.581C729.214 318.52 744.603 321.49 763.231 321.49V354.292C754.322 352.942 745.683 351.052 737.314 348.622C728.944 346.193 720.845 343.223 713.016 339.713C700.867 334.044 691.958 327.159 686.288 319.06C680.619 310.961 678.324 300.702 679.404 288.283C680.754 275.864 686.558 261.151 696.817 244.142H700.867ZM696.817 244.142C686.558 227.134 680.754 212.42 679.404 200.001C678.324 187.582 680.619 177.323 686.288 169.224C691.958 161.125 700.867 154.241 713.016 148.571C720.845 145.061 728.944 142.092 737.314 139.662C745.683 137.232 754.322 135.342 763.231 133.992V166.794C744.603 166.794 729.214 169.764 717.065 175.704C705.187 181.643 697.627 190.417 694.388 202.026C691.148 213.365 693.308 227.404 700.867 244.142H696.817ZM856.372 244.142C866.092 258.991 871.086 272.22 871.356 283.828C871.896 295.167 868.926 305.022 862.447 313.391C856.237 321.49 846.518 328.644 833.29 334.854C822.491 339.713 811.152 343.763 799.273 347.003C787.664 349.972 775.65 352.402 763.231 354.292V321.49C786.989 321.49 806.292 318.52 821.141 312.581C835.989 306.371 843.684 297.462 844.224 285.853C845.033 273.974 836.934 260.071 819.926 244.142H856.372ZM819.926 244.142C836.934 228.214 845.033 214.445 844.224 202.836C843.684 190.957 835.989 182.048 821.141 176.109C806.292 169.899 786.989 166.794 763.231 166.794V133.992C775.65 135.882 787.664 138.447 799.273 141.687C811.152 144.656 822.491 148.571 833.29 153.431C846.518 159.64 856.237 166.929 862.447 175.299C868.926 183.398 871.896 193.252 871.356 204.861C871.086 216.2 866.092 229.294 856.372 244.142H819.926ZM734.479 140.877C712.341 188.932 701.272 236.853 701.272 284.638C701.272 332.424 712.341 380.345 734.479 428.4H630.808C652.676 380.345 663.61 332.424 663.61 284.638C663.61 236.853 652.676 188.932 630.808 140.877H734.479Z" fill="black"/>
<path d="M977.697 244.142C970.137 260.881 967.977 275.054 971.217 286.663C974.457 298.002 982.016 306.641 993.895 312.581C1006.04 318.52 1021.43 321.49 1040.06 321.49V354.292C1031.15 352.942 1022.51 351.052 1014.14 348.622C1005.77 346.193 997.675 343.223 989.845 339.713C977.697 334.044 968.787 327.159 963.118 319.06C957.448 310.961 955.154 300.702 956.234 288.283C957.583 275.864 963.388 261.151 973.647 244.142H977.697ZM973.647 244.142C963.388 227.134 957.583 212.42 956.234 200.001C955.154 187.582 957.448 177.323 963.118 169.224C968.787 161.125 977.697 154.241 989.845 148.571C997.675 145.061 1005.77 142.092 1014.14 139.662C1022.51 137.232 1031.15 135.342 1040.06 133.992V166.794C1021.43 166.794 1006.04 169.764 993.895 175.704C982.016 181.643 974.457 190.417 971.217 202.026C967.977 213.365 970.137 227.404 977.697 244.142H973.647ZM1133.2 244.142C1142.92 258.991 1147.92 272.22 1148.19 283.828C1148.73 295.167 1145.76 305.022 1139.28 313.391C1133.07 321.49 1123.35 328.644 1110.12 334.854C1099.32 339.713 1087.98 343.763 1076.1 347.003C1064.49 349.972 1052.48 352.402 1040.06 354.292V321.49C1063.82 321.49 1083.12 318.52 1097.97 312.581C1112.82 306.371 1120.51 297.462 1121.05 285.853C1121.86 273.974 1113.76 260.071 1096.76 244.142H1133.2ZM1096.76 244.142C1113.76 228.214 1121.86 214.445 1121.05 202.836C1120.51 190.957 1112.82 182.048 1097.97 176.109C1083.12 169.899 1063.82 166.794 1040.06 166.794V133.992C1052.48 135.882 1064.49 138.447 1076.1 141.687C1087.98 144.656 1099.32 148.571 1110.12 153.431C1123.35 159.64 1133.07 166.929 1139.28 175.299C1145.76 183.398 1148.73 193.252 1148.19 204.861C1147.92 216.2 1142.92 229.294 1133.2 244.142H1096.76ZM1011.31 140.877C989.171 188.932 978.102 236.853 978.102 284.638C978.102 332.424 989.171 380.345 1011.31 428.4H907.638C929.506 380.345 940.44 332.424 940.44 284.638C940.44 236.853 929.506 188.932 907.638 140.877H1011.31Z" fill="black"/>
<path d="M1345.24 207.291C1354.42 214.58 1360.22 220.789 1362.65 225.919C1365.35 230.778 1365.22 234.963 1362.25 238.473C1359.28 241.712 1353.88 244.412 1346.05 246.572C1336.33 249.542 1325.39 251.971 1313.25 253.861C1301.37 255.751 1288.95 257.776 1275.99 259.936V226.324C1296.51 226.324 1312.57 225.919 1324.18 225.109C1335.79 224.029 1343.48 222.139 1347.26 219.44C1351.31 216.74 1349.96 212.69 1343.21 207.291H1345.24ZM1345.24 258.721C1355.23 272.76 1361.03 284.908 1362.65 295.167C1364.27 305.426 1362.52 313.931 1357.39 320.68C1352.26 327.429 1344.16 333.369 1333.09 338.498C1323.91 342.278 1314.46 345.383 1304.74 347.813C1295.02 350.242 1285.03 352.402 1274.77 354.292V319.465C1294.21 319.465 1310.28 317.305 1322.96 312.986C1335.92 308.666 1344.29 302.052 1348.07 293.143C1352.12 283.963 1350.5 272.49 1343.21 258.721H1345.24ZM1399.5 206.076C1387.62 229.564 1381.68 253.186 1381.68 276.944C1381.68 300.432 1387.62 323.92 1399.5 347.408H1322.96C1335.11 323.92 1341.19 300.432 1341.19 276.944C1341.19 253.186 1335.11 229.564 1322.96 206.076H1399.5ZM1214.03 210.935C1205.39 201.486 1200.26 193.252 1198.64 186.233C1197.29 178.943 1198.64 172.734 1202.69 167.604C1207.01 162.205 1214.03 157.345 1223.75 153.026C1234.28 148.436 1245.75 144.656 1258.17 141.687C1270.86 138.717 1284.22 136.017 1298.26 133.588V166.389C1275.85 166.389 1258.17 168.279 1245.21 172.059C1232.52 175.569 1226.31 180.698 1226.58 187.447C1227.12 194.197 1235.09 202.026 1250.48 210.935H1214.03ZM1343.21 206.076C1358.33 198.246 1366.16 191.362 1366.7 185.423C1367.24 179.213 1361.44 174.489 1349.29 171.249C1337.14 168.009 1320.13 166.389 1298.26 166.389V133.588C1312.03 136.017 1325.12 138.717 1337.54 141.687C1349.96 144.656 1361.57 148.301 1372.37 152.621C1381.55 156.67 1387.89 161.125 1391.4 165.984C1395.18 170.844 1396.26 176.648 1394.64 183.398C1393.02 189.877 1388.03 197.437 1379.66 206.076H1343.21ZM1241.97 289.498C1227.12 295.437 1218.75 300.702 1216.86 305.292C1214.97 309.611 1219.16 313.121 1229.42 315.821C1239.68 318.25 1254.8 319.465 1274.77 319.465V354.292C1265.87 352.402 1257.09 350.377 1248.45 348.218C1239.81 346.328 1231.98 344.303 1224.96 342.143C1217.94 339.983 1211.2 337.419 1204.72 334.449C1197.43 331.209 1192.57 327.564 1190.14 323.515C1187.71 319.195 1187.57 314.336 1189.73 308.936C1192.16 303.267 1197.43 296.787 1205.53 289.498H1241.97ZM1205.53 289.498C1197.43 282.479 1192.3 276.269 1190.14 270.87C1187.98 265.2 1188.11 260.341 1190.54 256.291C1193.24 252.241 1198.24 248.597 1205.53 245.357C1212.01 242.387 1218.75 239.958 1225.77 238.068C1233.06 235.908 1240.89 233.883 1249.26 231.993C1257.9 230.104 1266.81 228.214 1275.99 226.324V259.936C1255.74 259.936 1240.49 261.151 1230.23 263.58C1219.97 266.01 1215.65 269.52 1217.27 274.109C1219.16 278.429 1227.39 283.559 1241.97 289.498H1205.53Z" fill="black"/>
</svg>
