<svg width="1440" height="481" viewBox="0 0 1440 481" fill="none" xmlns="http://www.w3.org/2000/svg">
<mask id="path-1-inside-1" fill="white">
<path d="M41 171.249C45.3196 166.119 47.4794 161.125 47.4794 156.265C47.4794 151.136 45.3196 146.006 41 140.877H180.307C175.717 146.006 173.423 151.136 173.423 156.265C173.423 161.125 175.717 166.119 180.307 171.249H41ZM88.7855 140.877C79.6064 130.348 74.3419 121.034 72.992 112.934C71.6421 104.565 73.262 97.4109 77.8516 91.4714C82.4411 85.262 90.0004 79.7275 100.529 74.868C112.408 69.7384 124.962 65.4189 138.191 61.9092C151.42 58.3995 165.053 55.4298 179.092 53V91.8764C154.794 91.8764 135.356 93.9012 120.778 97.9508C106.469 101.73 99.3146 107.4 99.3146 114.959C99.3146 122.249 107.954 130.888 125.232 140.877H88.7855ZM148.315 171.249C134.006 200.676 126.852 230.104 126.852 259.531C126.852 288.688 134.006 317.98 148.315 347.408H65.7027C80.0114 317.98 87.1657 288.688 87.1657 259.531C87.1657 230.104 80.0114 200.676 65.7027 171.249H148.315Z"/>
<path d="M265.583 235.638C256.134 221.869 251.005 209.855 250.195 199.596C249.385 189.337 251.814 180.698 257.484 173.679C263.153 166.659 272.063 160.45 284.211 155.05C295.55 150.191 307.294 146.276 319.443 143.307C331.862 140.337 344.686 137.772 357.915 135.612V172.059C333.347 172.059 312.964 174.489 296.765 179.348C280.567 183.938 269.903 190.957 264.773 200.406C259.644 209.855 261.264 221.599 269.633 235.638H265.583ZM295.55 140.877C279.082 175.164 270.848 209.585 270.848 244.142C270.848 278.429 279.082 312.851 295.55 347.408H206.864C223.332 312.851 231.566 278.429 231.566 244.142C231.566 209.585 223.332 175.164 206.864 140.877H295.55Z"/>
<path d="M540.059 207.291C549.238 214.58 555.043 220.789 557.472 225.919C560.172 230.778 560.037 234.963 557.067 238.473C554.098 241.712 548.698 244.412 540.869 246.572C531.15 249.542 520.216 251.971 508.067 253.861C496.188 255.751 483.769 257.776 470.81 259.936V226.324C491.329 226.324 507.392 225.919 519.001 225.109C530.61 224.029 538.304 222.139 542.084 219.44C546.133 216.74 544.784 212.69 538.034 207.291H540.059ZM540.059 258.721C550.048 272.76 555.853 284.908 557.472 295.167C559.092 305.426 557.337 313.931 552.208 320.68C547.078 327.429 538.979 333.369 527.91 338.498C518.731 342.278 509.282 345.383 499.563 347.813C489.844 350.242 479.855 352.402 469.596 354.292V319.465C489.034 319.465 505.097 317.305 517.786 312.986C530.745 308.666 539.114 302.052 542.894 293.143C546.943 283.963 545.324 272.49 538.034 258.721H540.059ZM594.324 206.076C582.445 229.564 576.506 253.186 576.506 276.944C576.506 300.432 582.445 323.92 594.324 347.408H517.786C529.935 323.92 536.009 300.432 536.009 276.944C536.009 253.186 529.935 229.564 517.786 206.076H594.324ZM408.851 210.935C400.212 201.486 395.082 193.252 393.463 186.233C392.113 178.943 393.463 172.734 397.512 167.604C401.832 162.205 408.851 157.345 418.57 153.026C429.099 148.436 440.573 144.656 452.992 141.687C465.681 138.717 479.045 136.017 493.083 133.588V166.389C470.675 166.389 452.992 168.279 440.033 172.059C427.344 175.569 421.135 180.698 421.405 187.447C421.945 194.197 429.909 202.026 445.298 210.935H408.851ZM538.034 206.076C553.153 198.246 560.982 191.362 561.522 185.423C562.062 179.213 556.257 174.489 544.109 171.249C531.96 168.009 514.951 166.389 493.083 166.389V133.588C506.852 136.017 519.946 138.717 532.365 141.687C544.784 144.656 556.392 148.301 567.191 152.621C576.371 156.67 582.715 161.125 586.225 165.984C590.004 170.844 591.084 176.648 589.464 183.398C587.844 189.877 582.85 197.437 574.481 206.076H538.034ZM436.794 289.498C421.945 295.437 413.576 300.702 411.686 305.292C409.796 309.611 413.981 313.121 424.24 315.821C434.499 318.25 449.617 319.465 469.596 319.465V354.292C460.686 352.402 451.912 350.377 443.273 348.218C434.634 346.328 426.805 344.303 419.785 342.143C412.766 339.983 406.016 337.419 399.537 334.449C392.248 331.209 387.388 327.564 384.958 323.515C382.529 319.195 382.394 314.336 384.553 308.936C386.983 303.267 392.248 296.787 400.347 289.498H436.794ZM400.347 289.498C392.248 282.479 387.118 276.269 384.958 270.87C382.799 265.2 382.934 260.341 385.363 256.291C388.063 252.241 393.058 248.597 400.347 245.357C406.826 242.387 413.576 239.958 420.595 238.068C427.884 235.908 435.714 233.883 444.083 231.993C452.722 230.104 461.631 228.214 470.81 226.324V259.936C450.562 259.936 435.309 261.151 425.05 263.58C414.791 266.01 410.471 269.52 412.091 274.109C413.981 278.429 422.215 283.559 436.794 289.498H400.347Z"/>
<path d="M700.867 244.142C693.308 260.881 691.148 275.054 694.388 286.663C697.627 298.002 705.187 306.641 717.065 312.581C729.214 318.52 744.603 321.49 763.231 321.49V354.292C754.322 352.942 745.683 351.052 737.314 348.622C728.944 346.193 720.845 343.223 713.016 339.713C700.867 334.044 691.958 327.159 686.288 319.06C680.619 310.961 678.324 300.702 679.404 288.283C680.754 275.864 686.558 261.151 696.817 244.142H700.867ZM696.817 244.142C686.558 227.134 680.754 212.42 679.404 200.001C678.324 187.582 680.619 177.323 686.288 169.224C691.958 161.125 700.867 154.241 713.016 148.571C720.845 145.061 728.944 142.092 737.314 139.662C745.683 137.232 754.322 135.342 763.231 133.992V166.794C744.603 166.794 729.214 169.764 717.065 175.704C705.187 181.643 697.627 190.417 694.388 202.026C691.148 213.365 693.308 227.404 700.867 244.142H696.817ZM856.372 244.142C866.092 258.991 871.086 272.22 871.356 283.829C871.896 295.167 868.926 305.022 862.447 313.391C856.237 321.49 846.518 328.644 833.29 334.854C822.491 339.713 811.152 343.763 799.273 347.003C787.664 349.972 775.65 352.402 763.231 354.292V321.49C786.989 321.49 806.292 318.52 821.141 312.581C835.989 306.371 843.684 297.462 844.224 285.853C845.033 273.974 836.934 260.071 819.926 244.142H856.372ZM819.926 244.142C836.934 228.214 845.033 214.445 844.224 202.836C843.684 190.957 835.989 182.048 821.141 176.109C806.292 169.899 786.989 166.794 763.231 166.794V133.992C775.65 135.882 787.664 138.447 799.273 141.687C811.152 144.656 822.491 148.571 833.29 153.431C846.518 159.64 856.237 166.929 862.447 175.299C868.926 183.398 871.896 193.252 871.356 204.861C871.086 216.2 866.092 229.294 856.372 244.142H819.926ZM734.479 140.877C712.341 188.932 701.272 236.853 701.272 284.638C701.272 332.424 712.341 380.345 734.479 428.4H630.808C652.676 380.345 663.61 332.424 663.61 284.638C663.61 236.853 652.676 188.932 630.808 140.877H734.479Z"/>
<path d="M977.697 244.142C970.137 260.881 967.977 275.054 971.217 286.663C974.457 298.002 982.016 306.641 993.895 312.581C1006.04 318.52 1021.43 321.49 1040.06 321.49V354.292C1031.15 352.942 1022.51 351.052 1014.14 348.622C1005.77 346.193 997.675 343.223 989.845 339.713C977.697 334.044 968.787 327.159 963.118 319.06C957.448 310.961 955.154 300.702 956.234 288.283C957.583 275.864 963.388 261.151 973.647 244.142H977.697ZM973.647 244.142C963.388 227.134 957.583 212.42 956.234 200.001C955.154 187.582 957.448 177.323 963.118 169.224C968.787 161.125 977.697 154.241 989.845 148.571C997.675 145.061 1005.77 142.092 1014.14 139.662C1022.51 137.232 1031.15 135.342 1040.06 133.992V166.794C1021.43 166.794 1006.04 169.764 993.895 175.704C982.016 181.643 974.457 190.417 971.217 202.026C967.977 213.365 970.137 227.404 977.697 244.142H973.647ZM1133.2 244.142C1142.92 258.991 1147.92 272.22 1148.19 283.829C1148.73 295.167 1145.76 305.022 1139.28 313.391C1133.07 321.49 1123.35 328.644 1110.12 334.854C1099.32 339.713 1087.98 343.763 1076.1 347.003C1064.49 349.972 1052.48 352.402 1040.06 354.292V321.49C1063.82 321.49 1083.12 318.52 1097.97 312.581C1112.82 306.371 1120.51 297.462 1121.05 285.853C1121.86 273.974 1113.76 260.071 1096.76 244.142H1133.2ZM1096.76 244.142C1113.76 228.214 1121.86 214.445 1121.05 202.836C1120.51 190.957 1112.82 182.048 1097.97 176.109C1083.12 169.899 1063.82 166.794 1040.06 166.794V133.992C1052.48 135.882 1064.49 138.447 1076.1 141.687C1087.98 144.656 1099.32 148.571 1110.12 153.431C1123.35 159.64 1133.07 166.929 1139.28 175.299C1145.76 183.398 1148.73 193.252 1148.19 204.861C1147.92 216.2 1142.92 229.294 1133.2 244.142H1096.76ZM1011.31 140.877C989.17 188.932 978.102 236.853 978.102 284.638C978.102 332.424 989.17 380.345 1011.31 428.4H907.638C929.506 380.345 940.44 332.424 940.44 284.638C940.44 236.853 929.506 188.932 907.638 140.877H1011.31Z"/>
<path d="M1345.24 207.291C1354.42 214.58 1360.22 220.789 1362.65 225.919C1365.35 230.778 1365.22 234.963 1362.25 238.473C1359.28 241.712 1353.88 244.412 1346.05 246.572C1336.33 249.542 1325.39 251.971 1313.25 253.861C1301.37 255.751 1288.95 257.776 1275.99 259.936V226.324C1296.51 226.324 1312.57 225.919 1324.18 225.109C1335.79 224.029 1343.48 222.139 1347.26 219.44C1351.31 216.74 1349.96 212.69 1343.21 207.291H1345.24ZM1345.24 258.721C1355.23 272.76 1361.03 284.908 1362.65 295.167C1364.27 305.426 1362.52 313.931 1357.39 320.68C1352.26 327.429 1344.16 333.369 1333.09 338.498C1323.91 342.278 1314.46 345.383 1304.74 347.813C1295.02 350.242 1285.03 352.402 1274.77 354.292V319.465C1294.21 319.465 1310.28 317.305 1322.96 312.986C1335.92 308.666 1344.29 302.052 1348.07 293.143C1352.12 283.963 1350.5 272.49 1343.21 258.721H1345.24ZM1399.5 206.076C1387.62 229.564 1381.68 253.186 1381.68 276.944C1381.68 300.432 1387.62 323.92 1399.5 347.408H1322.96C1335.11 323.92 1341.19 300.432 1341.19 276.944C1341.19 253.186 1335.11 229.564 1322.96 206.076H1399.5ZM1214.03 210.935C1205.39 201.486 1200.26 193.252 1198.64 186.233C1197.29 178.943 1198.64 172.734 1202.69 167.604C1207.01 162.205 1214.03 157.345 1223.75 153.026C1234.28 148.436 1245.75 144.656 1258.17 141.687C1270.86 138.717 1284.22 136.017 1298.26 133.588V166.389C1275.85 166.389 1258.17 168.279 1245.21 172.059C1232.52 175.569 1226.31 180.698 1226.58 187.447C1227.12 194.197 1235.09 202.026 1250.48 210.935H1214.03ZM1343.21 206.076C1358.33 198.246 1366.16 191.362 1366.7 185.423C1367.24 179.213 1361.44 174.489 1349.29 171.249C1337.14 168.009 1320.13 166.389 1298.26 166.389V133.588C1312.03 136.017 1325.12 138.717 1337.54 141.687C1349.96 144.656 1361.57 148.301 1372.37 152.621C1381.55 156.67 1387.89 161.125 1391.4 165.984C1395.18 170.844 1396.26 176.648 1394.64 183.398C1393.02 189.877 1388.03 197.437 1379.66 206.076H1343.21ZM1241.97 289.498C1227.12 295.437 1218.75 300.702 1216.86 305.292C1214.97 309.611 1219.16 313.121 1229.42 315.821C1239.68 318.25 1254.8 319.465 1274.77 319.465V354.292C1265.87 352.402 1257.09 350.377 1248.45 348.218C1239.81 346.328 1231.98 344.303 1224.96 342.143C1217.94 339.983 1211.2 337.419 1204.72 334.449C1197.43 331.209 1192.57 327.564 1190.14 323.515C1187.71 319.195 1187.57 314.336 1189.73 308.936C1192.16 303.267 1197.43 296.787 1205.53 289.498H1241.97ZM1205.53 289.498C1197.43 282.479 1192.3 276.269 1190.14 270.87C1187.98 265.2 1188.11 260.341 1190.54 256.291C1193.24 252.241 1198.24 248.597 1205.53 245.357C1212.01 242.387 1218.75 239.958 1225.77 238.068C1233.06 235.908 1240.89 233.883 1249.26 231.993C1257.9 230.104 1266.81 228.214 1275.99 226.324V259.936C1255.74 259.936 1240.49 261.151 1230.23 263.58C1219.97 266.01 1215.65 269.52 1217.27 274.109C1219.16 278.429 1227.39 283.559 1241.97 289.498H1205.53Z"/>
</mask>
<path d="M471.31 259.936V226.324H470.31V259.936H471.31ZM470.096 354.292V319.465H469.096V354.292H470.096ZM492.583 133.588V166.389H493.583V133.588H492.583ZM400.347 289.998H436.794V288.998H400.347V289.998ZM762.731 321.49V354.292H763.731V321.49H762.731ZM696.817 244.642H700.867V243.642H696.817V244.642ZM762.731 133.992V166.794H763.731V133.992H762.731ZM819.926 244.642H856.372V243.642H819.926V244.642ZM1039.56 321.49V354.292H1040.56V321.49H1039.56ZM973.647 244.642H977.697V243.642H973.647V244.642ZM1039.56 133.992V166.794H1040.56V133.992H1039.56ZM1096.76 244.642H1133.2V243.642H1096.76V244.642ZM1276.49 259.936V226.324H1275.49V259.936H1276.49ZM1275.27 354.292V319.465H1274.27V354.292H1275.27ZM1297.76 133.588V166.389H1298.76V133.588H1297.76ZM1205.53 289.998H1241.97V288.998H1205.53V289.998ZM41 171.249L40.2351 170.605L38.8506 172.249H41V171.249ZM41 140.877V139.877H38.8506L40.2351 141.521L41 140.877ZM180.307 140.877L181.052 141.544L182.544 139.877H180.307V140.877ZM180.307 171.249V172.249H182.544L181.052 170.582L180.307 171.249ZM88.7855 140.877L88.0318 141.534L88.3307 141.877H88.7855V140.877ZM72.992 112.934L72.0048 113.094L72.0056 113.099L72.992 112.934ZM77.8516 91.4714L78.6428 92.0829L78.6494 92.0744L78.6557 92.0658L77.8516 91.4714ZM100.529 74.868L100.133 73.9499L100.122 73.9548L100.11 73.96L100.529 74.868ZM179.092 53H180.092V51.8121L178.922 52.0146L179.092 53ZM179.092 91.8764V92.8764H180.092V91.8764H179.092ZM120.778 97.9508L121.033 98.9177L121.045 98.9143L120.778 97.9508ZM125.232 140.877V141.877H128.96L125.733 140.011L125.232 140.877ZM148.315 171.249L149.214 171.686L149.913 170.249H148.315V171.249ZM148.315 347.408V348.408H149.913L149.214 346.97L148.315 347.408ZM65.7027 347.408L64.8034 346.97L64.1045 348.408H65.7027V347.408ZM65.7027 171.249V170.249H64.1045L64.8034 171.686L65.7027 171.249ZM265.583 235.638L264.759 236.204L265.057 236.638H265.583V235.638ZM250.195 199.596L251.192 199.518L251.192 199.518L250.195 199.596ZM257.484 173.679L256.706 173.05L256.706 173.05L257.484 173.679ZM284.211 155.05L283.818 154.131L283.805 154.137L284.211 155.05ZM319.443 143.307L319.211 142.334L319.206 142.335L319.443 143.307ZM357.915 135.612H358.915V134.436L357.753 134.625L357.915 135.612ZM357.915 172.059V173.059H358.915V172.059H357.915ZM296.765 179.348L297.038 180.31L297.045 180.308L297.053 180.306L296.765 179.348ZM264.773 200.406L265.652 200.883L265.652 200.883L264.773 200.406ZM269.633 235.638V236.638H271.393L270.492 235.126L269.633 235.638ZM295.55 140.877L296.452 141.31L297.14 139.877H295.55V140.877ZM295.55 347.408V348.408H297.135L296.453 346.977L295.55 347.408ZM206.864 347.408L205.961 346.977L205.279 348.408H206.864V347.408ZM206.864 140.877V139.877H205.274L205.962 141.31L206.864 140.877ZM540.059 207.291L540.681 206.508L540.408 206.291H540.059V207.291ZM557.472 225.919L556.569 226.347L556.582 226.376L556.598 226.405L557.472 225.919ZM557.067 238.473L557.805 239.148L557.818 239.134L557.831 239.119L557.067 238.473ZM540.869 246.572L540.603 245.608L540.59 245.612L540.577 245.616L540.869 246.572ZM508.067 253.861L507.913 252.873L507.91 252.874L508.067 253.861ZM470.81 259.936V260.936H470.893L470.975 260.922L470.81 259.936ZM470.81 226.324V225.324H470.709L470.609 225.344L470.81 226.324ZM519.001 225.109L519.071 226.107L519.082 226.106L519.094 226.105L519.001 225.109ZM542.084 219.44L541.529 218.607L541.516 218.616L541.503 218.626L542.084 219.44ZM538.034 207.291V206.291H535.183L537.409 208.072L538.034 207.291ZM540.059 258.721L540.874 258.141L540.575 257.721H540.059V258.721ZM557.472 295.167L556.485 295.323L556.485 295.323L557.472 295.167ZM552.208 320.68L553.004 321.285L553.004 321.285L552.208 320.68ZM527.91 338.498L528.291 339.423L528.311 339.415L528.331 339.406L527.91 338.498ZM499.563 347.813L499.32 346.842L499.32 346.842L499.563 347.813ZM469.596 354.292L469.388 355.27L469.582 355.311L469.777 355.275L469.596 354.292ZM517.786 312.986L517.47 312.037L517.464 312.039L517.786 312.986ZM542.894 293.143L541.979 292.739L541.976 292.746L541.973 292.752L542.894 293.143ZM538.034 258.721V257.721H536.373L537.15 259.189L538.034 258.721ZM594.324 206.076L595.216 206.527L595.95 205.076H594.324V206.076ZM594.324 347.408V348.408H595.95L595.216 346.956L594.324 347.408ZM517.786 347.408L516.898 346.948L516.143 348.408H517.786V347.408ZM517.786 206.076V205.076H516.143L516.898 206.535L517.786 206.076ZM408.851 210.935L408.113 211.61L408.411 211.935H408.851V210.935ZM393.463 186.233L392.479 186.415L392.483 186.436L392.488 186.457L393.463 186.233ZM397.512 167.604L396.731 166.98L396.727 166.985L397.512 167.604ZM418.57 153.026L418.171 152.109L418.164 152.112L418.57 153.026ZM452.992 141.687L452.764 140.713L452.76 140.714L452.992 141.687ZM493.083 133.588L493.257 132.603L493.085 132.572L492.913 132.602L493.083 133.588ZM440.033 172.059L440.3 173.023L440.313 173.019L440.033 172.059ZM421.405 187.447L420.406 187.487L420.407 187.507L420.408 187.527L421.405 187.447ZM445.298 210.935V211.935H449.021L445.799 210.07L445.298 210.935ZM538.034 206.076L537.574 205.188L538.034 207.076V206.076ZM561.522 185.423L562.518 185.513L562.518 185.509L561.522 185.423ZM544.109 171.249L544.366 170.283L544.366 170.283L544.109 171.249ZM532.365 141.687L532.132 142.659L532.132 142.659L532.365 141.687ZM567.191 152.621L567.595 151.706L567.579 151.699L567.563 151.692L567.191 152.621ZM586.225 165.984L585.414 166.57L585.424 166.584L585.435 166.598L586.225 165.984ZM589.464 183.398L590.435 183.64L590.437 183.631L589.464 183.398ZM574.481 206.076V207.076H574.904L575.199 206.772L574.481 206.076ZM436.794 289.498L437.165 290.426L439.465 289.506L437.171 288.572L436.794 289.498ZM411.686 305.292L412.602 305.692L412.606 305.682L412.611 305.672L411.686 305.292ZM424.24 315.821L423.985 316.788L423.997 316.791L424.009 316.794L424.24 315.821ZM443.273 348.218L443.516 347.247L443.501 347.244L443.487 347.241L443.273 348.218ZM419.785 342.143L420.079 341.187L420.079 341.187L419.785 342.143ZM399.537 334.449L399.954 333.54L399.943 333.535L399.537 334.449ZM384.958 323.515L384.087 324.005L384.094 324.017L384.101 324.029L384.958 323.515ZM384.553 308.936L383.634 308.542L383.63 308.553L383.625 308.565L384.553 308.936ZM400.347 289.498L401.016 290.241L401.858 289.484L401.002 288.742L400.347 289.498ZM384.958 270.87L384.024 271.226L384.027 271.233L384.03 271.241L384.958 270.87ZM385.363 256.291L384.531 255.736L384.518 255.756L384.506 255.777L385.363 256.291ZM400.347 245.357L400.753 246.271L400.764 246.266L400.347 245.357ZM420.595 238.068L420.855 239.033L420.867 239.03L420.879 239.027L420.595 238.068ZM444.083 231.993L443.869 231.016L443.863 231.018L444.083 231.993ZM425.05 263.58L424.819 262.607L424.819 262.607L425.05 263.58ZM412.091 274.109L411.148 274.442L411.16 274.477L411.175 274.51L412.091 274.109ZM700.867 244.142L701.778 244.554L701.964 244.142L701.778 243.731L700.867 244.142ZM694.388 286.663L693.424 286.932L693.426 286.938L694.388 286.663ZM717.065 312.581L716.618 313.475L716.626 313.479L717.065 312.581ZM763.231 354.292L763.081 355.281L763.231 355.303L763.382 355.281L763.231 354.292ZM737.314 348.622L737.592 347.662L737.592 347.662L737.314 348.622ZM713.016 339.713L712.593 340.619L712.6 340.623L712.607 340.626L713.016 339.713ZM686.288 319.06L685.469 319.634L685.469 319.634L686.288 319.06ZM679.404 288.283L678.41 288.175L678.409 288.186L678.408 288.196L679.404 288.283ZM696.817 244.142L697.674 244.659L697.985 244.142L697.674 243.626L696.817 244.142ZM679.404 200.001L678.408 200.088L678.409 200.099L678.41 200.109L679.404 200.001ZM713.016 148.571L712.607 147.659L712.6 147.662L712.593 147.665L713.016 148.571ZM737.314 139.662L737.592 140.622L737.592 140.622L737.314 139.662ZM763.231 133.992L763.382 133.004L763.231 132.981L763.081 133.004L763.231 133.992ZM717.065 175.704L716.626 174.805L716.618 174.809L717.065 175.704ZM694.388 202.026L695.349 202.301L695.351 202.295L694.388 202.026ZM856.372 244.142L855.536 243.595L855.177 244.142L855.536 244.69L856.372 244.142ZM871.356 283.829L870.356 283.852L870.357 283.864L870.357 283.876L871.356 283.829ZM862.447 313.391L861.656 312.779L861.653 312.782L862.447 313.391ZM833.29 334.854L833.7 335.766L833.707 335.762L833.714 335.759L833.29 334.854ZM799.273 347.003L799.521 347.971L799.528 347.969L799.536 347.967L799.273 347.003ZM821.141 312.581L821.512 313.509L821.519 313.506L821.526 313.503L821.141 312.581ZM844.224 285.853L843.226 285.785L843.225 285.796L843.225 285.807L844.224 285.853ZM819.926 244.142L819.242 243.412L818.463 244.142L819.242 244.872L819.926 244.142ZM844.224 202.836L843.225 202.881L843.225 202.894L843.226 202.906L844.224 202.836ZM821.141 176.109L820.755 177.031L820.762 177.034L820.769 177.037L821.141 176.109ZM799.273 141.687L799.004 142.65L799.017 142.654L799.03 142.657L799.273 141.687ZM833.29 153.431L833.714 152.525L833.707 152.522L833.7 152.519L833.29 153.431ZM862.447 175.299L861.644 175.894L861.655 175.909L861.666 175.923L862.447 175.299ZM871.356 204.861L870.357 204.814L870.357 204.826L870.356 204.837L871.356 204.861ZM734.479 140.877L735.387 141.295L736.041 139.877H734.479V140.877ZM734.479 428.4V429.4H736.041L735.387 427.982L734.479 428.4ZM630.808 428.4L629.898 427.986L629.255 429.4H630.808V428.4ZM630.808 140.877V139.877H629.255L629.898 141.291L630.808 140.877ZM977.697 244.142L978.608 244.554L978.794 244.142L978.608 243.731L977.697 244.142ZM971.217 286.663L970.254 286.932L970.256 286.938L971.217 286.663ZM993.895 312.581L993.448 313.475L993.456 313.479L993.895 312.581ZM1040.06 354.292L1039.91 355.281L1040.06 355.303L1040.21 355.281L1040.06 354.292ZM1014.14 348.622L1014.42 347.662L1014.42 347.662L1014.14 348.622ZM989.845 339.713L989.423 340.619L989.429 340.623L989.436 340.626L989.845 339.713ZM963.118 319.06L962.299 319.634L962.299 319.634L963.118 319.06ZM956.234 288.283L955.239 288.175L955.238 288.186L955.237 288.196L956.234 288.283ZM973.647 244.142L974.503 244.659L974.815 244.142L974.503 243.626L973.647 244.142ZM956.234 200.001L955.237 200.088L955.238 200.099L955.239 200.109L956.234 200.001ZM989.845 148.571L989.436 147.659L989.429 147.662L989.423 147.665L989.845 148.571ZM1014.14 139.662L1014.42 140.622L1014.42 140.622L1014.14 139.662ZM1040.06 133.992L1040.21 133.004L1040.06 132.981L1039.91 133.004L1040.06 133.992ZM993.895 175.704L993.456 174.805L993.448 174.809L993.895 175.704ZM971.217 202.026L972.179 202.301L972.18 202.295L971.217 202.026ZM1133.2 244.142L1132.37 243.595L1132.01 244.142L1132.37 244.69L1133.2 244.142ZM1148.19 283.829L1147.19 283.852L1147.19 283.864L1147.19 283.876L1148.19 283.829ZM1139.28 313.391L1138.49 312.779L1138.48 312.782L1139.28 313.391ZM1110.12 334.854L1110.53 335.766L1110.54 335.762L1110.54 335.759L1110.12 334.854ZM1076.1 347.003L1076.35 347.971L1076.36 347.969L1076.37 347.967L1076.1 347.003ZM1097.97 312.581L1098.34 313.509L1098.35 313.506L1098.36 313.503L1097.97 312.581ZM1121.05 285.853L1120.06 285.785L1120.05 285.796L1120.05 285.807L1121.05 285.853ZM1096.76 244.142L1096.07 243.412L1095.29 244.142L1096.07 244.872L1096.76 244.142ZM1121.05 202.836L1120.05 202.881L1120.05 202.894L1120.06 202.906L1121.05 202.836ZM1097.97 176.109L1097.58 177.031L1097.59 177.034L1097.6 177.037L1097.97 176.109ZM1076.1 141.687L1075.83 142.65L1075.85 142.654L1075.86 142.657L1076.1 141.687ZM1110.12 153.431L1110.54 152.525L1110.54 152.522L1110.53 152.519L1110.12 153.431ZM1139.28 175.299L1138.47 175.894L1138.48 175.909L1138.5 175.923L1139.28 175.299ZM1148.19 204.861L1147.19 204.814L1147.19 204.826L1147.19 204.837L1148.19 204.861ZM1011.31 140.877L1012.22 141.295L1012.87 139.877H1011.31V140.877ZM1011.31 428.4V429.4H1012.87L1012.22 427.982L1011.31 428.4ZM907.638 428.4L906.728 427.986L906.084 429.4H907.638V428.4ZM907.638 140.877V139.877H906.084L906.728 141.291L907.638 140.877ZM1345.24 207.291L1345.86 206.508L1345.59 206.291H1345.24V207.291ZM1362.65 225.919L1361.75 226.347L1361.76 226.376L1361.78 226.405L1362.65 225.919ZM1362.25 238.473L1362.98 239.148L1363 239.134L1363.01 239.119L1362.25 238.473ZM1346.05 246.572L1345.78 245.608L1345.77 245.612L1345.76 245.616L1346.05 246.572ZM1313.25 253.861L1313.09 252.873L1313.09 252.874L1313.25 253.861ZM1275.99 259.936V260.936H1276.07L1276.15 260.922L1275.99 259.936ZM1275.99 226.324V225.324H1275.89L1275.79 225.344L1275.99 226.324ZM1324.18 225.109L1324.25 226.107L1324.26 226.106L1324.27 226.105L1324.18 225.109ZM1347.26 219.44L1346.71 218.607L1346.69 218.616L1346.68 218.626L1347.26 219.44ZM1343.21 207.291V206.291H1340.36L1342.59 208.072L1343.21 207.291ZM1345.24 258.721L1346.05 258.141L1345.75 257.721H1345.24V258.721ZM1362.65 295.167L1361.66 295.323L1361.66 295.323L1362.65 295.167ZM1357.39 320.68L1358.18 321.285L1358.18 321.285L1357.39 320.68ZM1333.09 338.498L1333.47 339.423L1333.49 339.415L1333.51 339.406L1333.09 338.498ZM1304.74 347.813L1304.5 346.842L1304.5 346.842L1304.74 347.813ZM1274.77 354.292L1274.57 355.27L1274.76 355.311L1274.96 355.275L1274.77 354.292ZM1322.96 312.986L1322.65 312.037L1322.64 312.039L1322.96 312.986ZM1348.07 293.143L1347.16 292.739L1347.15 292.746L1347.15 292.752L1348.07 293.143ZM1343.21 258.721V257.721H1341.55L1342.33 259.189L1343.21 258.721ZM1399.5 206.076L1400.39 206.527L1401.13 205.076H1399.5V206.076ZM1399.5 347.408V348.408H1401.13L1400.39 346.956L1399.5 347.408ZM1322.96 347.408L1322.08 346.948L1321.32 348.408H1322.96V347.408ZM1322.96 206.076V205.076H1321.32L1322.08 206.535L1322.96 206.076ZM1214.03 210.935L1213.29 211.61L1213.59 211.935H1214.03V210.935ZM1198.64 186.233L1197.66 186.415L1197.66 186.436L1197.67 186.457L1198.64 186.233ZM1202.69 167.604L1201.91 166.98L1201.91 166.985L1202.69 167.604ZM1223.75 153.026L1223.35 152.109L1223.34 152.112L1223.75 153.026ZM1258.17 141.687L1257.94 140.713L1257.94 140.714L1258.17 141.687ZM1298.26 133.588L1298.44 132.603L1298.26 132.572L1298.09 132.602L1298.26 133.588ZM1245.21 172.059L1245.48 173.023L1245.49 173.019L1245.21 172.059ZM1226.58 187.447L1225.58 187.487L1225.59 187.507L1225.59 187.527L1226.58 187.447ZM1250.48 210.935V211.935H1254.2L1250.98 210.07L1250.48 210.935ZM1343.21 206.076L1342.75 205.188L1343.21 207.076V206.076ZM1366.7 185.423L1367.7 185.513L1367.7 185.509L1366.7 185.423ZM1349.29 171.249L1349.55 170.283L1349.55 170.283L1349.29 171.249ZM1337.54 141.687L1337.31 142.659L1337.31 142.659L1337.54 141.687ZM1372.37 152.621L1372.77 151.706L1372.76 151.699L1372.74 151.692L1372.37 152.621ZM1391.4 165.984L1390.59 166.57L1390.6 166.584L1390.61 166.598L1391.4 165.984ZM1394.64 183.398L1395.61 183.64L1395.62 183.631L1394.64 183.398ZM1379.66 206.076V207.076H1380.08L1380.38 206.772L1379.66 206.076ZM1241.97 289.498L1242.34 290.426L1244.64 289.506L1242.35 288.572L1241.97 289.498ZM1216.86 305.292L1217.78 305.692L1217.79 305.682L1217.79 305.672L1216.86 305.292ZM1229.42 315.821L1229.16 316.788L1229.18 316.791L1229.19 316.794L1229.42 315.821ZM1248.45 348.218L1248.69 347.247L1248.68 347.244L1248.67 347.241L1248.45 348.218ZM1224.96 342.143L1225.26 341.187L1225.26 341.187L1224.96 342.143ZM1204.72 334.449L1205.13 333.54L1205.12 333.535L1204.72 334.449ZM1190.14 323.515L1189.27 324.005L1189.27 324.017L1189.28 324.029L1190.14 323.515ZM1189.73 308.936L1188.81 308.542L1188.81 308.553L1188.8 308.565L1189.73 308.936ZM1205.53 289.498L1206.19 290.241L1207.04 289.484L1206.18 288.742L1205.53 289.498ZM1190.14 270.87L1189.2 271.226L1189.21 271.233L1189.21 271.241L1190.14 270.87ZM1190.54 256.291L1189.71 255.736L1189.7 255.756L1189.68 255.777L1190.54 256.291ZM1205.53 245.357L1205.93 246.271L1205.94 246.266L1205.53 245.357ZM1225.77 238.068L1226.03 239.033L1226.05 239.03L1226.06 239.027L1225.77 238.068ZM1249.26 231.993L1249.05 231.016L1249.04 231.018L1249.26 231.993ZM1230.23 263.58L1230 262.607L1230 262.607L1230.23 263.58ZM1217.27 274.109L1216.33 274.442L1216.34 274.477L1216.35 274.51L1217.27 274.109ZM41.7649 171.893C46.1789 166.651 48.4794 161.437 48.4794 156.265H46.4794C46.4794 160.813 44.4603 165.587 40.2351 170.605L41.7649 171.893ZM48.4794 156.265C48.4794 150.836 46.189 145.486 41.7649 140.233L40.2351 141.521C44.4502 146.526 46.4794 151.436 46.4794 156.265H48.4794ZM41 141.877H180.307V139.877H41V141.877ZM179.562 140.21C174.865 145.459 172.423 150.816 172.423 156.265H174.423C174.423 151.456 176.57 146.553 181.052 141.544L179.562 140.21ZM172.423 156.265C172.423 161.457 174.876 166.679 179.562 171.916L181.052 170.582C176.559 165.56 174.423 160.793 174.423 156.265H172.423ZM180.307 170.249H41V172.249H180.307V170.249ZM89.5393 140.22C80.4064 129.744 75.2833 120.599 73.9784 112.77L72.0056 113.099C73.4005 121.468 78.8064 130.952 88.0318 141.534L89.5393 140.22ZM73.9793 112.775C72.6671 104.64 74.245 97.7742 78.6428 92.0829L77.0603 90.86C72.279 97.0475 70.6172 104.49 72.0048 113.094L73.9793 112.775ZM78.6557 92.0658C83.1075 86.0428 90.5016 80.5976 100.949 75.7759L100.11 73.96C89.4993 78.8574 81.7747 84.4812 77.0474 90.877L78.6557 92.0658ZM100.926 75.786C112.757 70.6772 125.264 66.3735 138.447 62.8757L137.934 60.9426C124.661 64.4642 112.06 68.7997 100.133 73.9499L100.926 75.786ZM138.447 62.8757C151.647 59.3739 165.252 56.4103 179.263 53.9854L178.922 52.0146C164.855 54.4492 151.193 57.4251 137.934 60.9426L138.447 62.8757ZM178.092 53V91.8764H180.092V53H178.092ZM179.092 90.8764C154.752 90.8764 135.212 92.9034 120.51 96.9873L121.045 98.9143C135.5 94.899 154.837 92.8764 179.092 92.8764V90.8764ZM120.522 96.984C113.307 98.8897 107.791 101.297 104.059 104.254C100.298 107.235 98.3146 110.81 98.3146 114.959H100.315C100.315 111.549 101.908 108.51 105.301 105.821C108.724 103.109 113.939 100.792 121.033 98.9177L120.522 96.984ZM98.3146 114.959C98.3146 119 100.699 123.225 105.087 127.613C109.495 132.02 116.058 136.728 124.732 141.743L125.733 140.011C117.128 135.036 110.733 130.43 106.501 126.199C102.249 121.947 100.315 118.207 100.315 114.959H98.3146ZM125.232 139.877H88.7855V141.877H125.232V139.877ZM147.416 170.812C133.048 200.36 125.852 229.936 125.852 259.531H127.852C127.852 230.271 134.964 200.993 149.214 171.686L147.416 170.812ZM125.852 259.531C125.852 288.857 133.049 318.298 147.416 347.845L149.214 346.97C134.964 317.662 127.852 288.519 127.852 259.531H125.852ZM148.315 346.408H65.7027V348.408H148.315V346.408ZM66.602 347.845C80.9688 318.298 88.1657 288.857 88.1657 259.531H86.1657C86.1657 288.519 79.0539 317.662 64.8034 346.97L66.602 347.845ZM88.1657 259.531C88.1657 229.936 80.9694 200.36 66.602 170.812L64.8034 171.686C79.0533 200.993 86.1657 230.271 86.1657 259.531H88.1657ZM65.7027 172.249H148.315V170.249H65.7027V172.249ZM266.408 235.072C257.002 221.367 251.982 209.525 251.192 199.518L249.198 199.675C250.028 210.186 255.266 222.371 264.759 236.204L266.408 235.072ZM251.192 199.518C250.399 189.475 252.776 181.099 258.262 174.307L256.706 173.05C250.853 180.297 248.371 189.2 249.198 199.675L251.192 199.518ZM258.262 174.307C263.796 167.456 272.55 161.328 284.618 155.964L283.805 154.137C271.575 159.572 262.511 165.863 256.706 173.05L258.262 174.307ZM284.605 155.97C295.893 151.132 307.585 147.235 319.681 144.278L319.206 142.335C307.004 145.318 295.208 149.25 283.818 154.131L284.605 155.97ZM319.676 144.279C332.07 141.315 344.87 138.755 358.076 136.599L357.753 134.625C344.502 136.789 331.654 139.358 319.211 142.334L319.676 144.279ZM356.915 135.612V172.059H358.915V135.612H356.915ZM357.915 171.059C333.289 171.059 312.801 173.493 296.478 178.39L297.053 180.306C313.126 175.484 333.404 173.059 357.915 173.059V171.059ZM296.493 178.386C280.178 183.009 269.209 190.139 263.894 199.929L265.652 200.883C270.596 191.776 280.956 184.867 297.038 180.31L296.493 178.386ZM263.894 199.929C258.52 209.83 260.325 221.978 268.774 236.15L270.492 235.126C262.202 221.221 260.768 209.881 265.652 200.883L263.894 199.929ZM269.633 234.638H265.583V236.638H269.633V234.638ZM294.649 140.444C278.122 174.852 269.848 209.421 269.848 244.142H271.848C271.848 209.75 280.042 175.475 296.452 141.31L294.649 140.444ZM269.848 244.142C269.848 278.594 278.123 313.162 294.648 347.838L296.453 346.977C280.041 312.539 271.848 278.264 271.848 244.142H269.848ZM295.55 346.408H206.864V348.408H295.55V346.408ZM207.766 347.838C224.291 313.162 232.566 278.594 232.566 244.142H230.566C230.566 278.264 222.373 312.539 205.961 346.977L207.766 347.838ZM232.566 244.142C232.566 209.421 224.292 174.852 207.765 140.444L205.962 141.31C222.372 175.475 230.566 209.75 230.566 244.142H232.566ZM206.864 141.877H295.55V139.877H206.864V141.877ZM539.437 208.074C548.598 215.348 554.243 221.438 556.569 226.347L558.376 225.491C555.842 220.141 549.879 213.812 540.681 206.508L539.437 208.074ZM556.598 226.405C557.888 228.727 558.456 230.808 558.396 232.67C558.337 234.514 557.658 236.226 556.304 237.827L557.831 239.119C559.446 237.21 560.32 235.074 560.395 232.734C560.47 230.411 559.756 227.971 558.347 225.433L556.598 226.405ZM556.33 237.797C553.555 240.824 548.382 243.462 540.603 245.608L541.135 247.536C549.014 245.362 554.64 242.601 557.805 239.148L556.33 237.797ZM540.577 245.616C530.911 248.569 520.025 250.989 507.913 252.873L508.221 254.849C520.407 252.954 531.388 250.514 541.161 247.528L540.577 245.616ZM507.91 252.874C496.028 254.764 483.607 256.789 470.646 258.949L470.975 260.922C483.931 258.763 496.348 256.738 508.224 254.849L507.91 252.874ZM470.81 227.324C491.337 227.324 507.427 226.919 519.071 226.107L518.931 224.111C507.357 224.919 491.32 225.324 470.81 225.324V227.324ZM519.094 226.105C524.927 225.562 529.805 224.814 533.717 223.853C537.613 222.896 540.624 221.711 542.665 220.253L541.503 218.626C539.764 219.868 537.038 220.978 533.24 221.911C529.457 222.84 524.684 223.576 518.908 224.113L519.094 226.105ZM542.639 220.272C543.763 219.522 544.603 218.619 545.037 217.533C545.477 216.433 545.456 215.257 545.057 214.061C544.285 211.744 542.058 209.229 538.659 206.51L537.409 208.072C540.76 210.752 542.582 212.961 543.16 214.694C543.436 215.523 543.415 216.203 543.18 216.79C542.939 217.392 542.429 218.007 541.529 218.607L542.639 220.272ZM538.034 208.291H540.059V206.291H538.034V208.291ZM539.244 259.301C549.196 273.286 554.9 285.286 556.485 295.323L558.46 295.011C556.805 284.531 550.901 272.233 540.874 258.141L539.244 259.301ZM556.485 295.323C558.072 305.378 556.34 313.59 551.412 320.075L553.004 321.285C558.334 314.272 560.112 305.475 558.46 295.011L556.485 295.323ZM551.412 320.075C546.415 326.65 538.471 332.502 527.49 337.591L528.331 339.406C539.487 334.236 547.742 328.209 553.004 321.285L551.412 320.075ZM527.529 337.574C518.396 341.335 508.993 344.424 499.32 346.842L499.805 348.783C509.571 346.341 519.066 343.221 528.291 339.423L527.529 337.574ZM499.32 346.842C489.622 349.267 479.654 351.422 469.414 353.309L469.777 355.275C480.056 353.382 490.065 351.218 499.805 348.783L499.32 346.842ZM469.596 320.465C489.098 320.465 505.28 318.299 518.108 313.932L517.464 312.039C504.914 316.311 488.969 318.465 469.596 318.465V320.465ZM518.102 313.934C531.218 309.563 539.882 302.801 543.814 293.533L541.973 292.752C538.346 301.303 530.272 307.77 517.47 312.037L518.102 313.934ZM543.809 293.546C548.037 283.961 546.27 272.141 538.918 258.253L537.15 259.189C544.377 272.838 545.849 283.966 541.979 292.739L543.809 293.546ZM538.034 259.721H540.059V257.721H538.034V259.721ZM593.432 205.624C581.49 229.237 575.506 253.013 575.506 276.944H577.506C577.506 253.359 583.4 229.89 595.216 206.527L593.432 205.624ZM575.506 276.944C575.506 300.607 581.491 324.248 593.432 347.859L595.216 346.956C583.4 323.591 577.506 300.257 577.506 276.944H575.506ZM594.324 346.408H517.786V348.408H594.324V346.408ZM518.674 347.867C530.887 324.255 537.009 300.611 537.009 276.944H535.009C535.009 300.253 528.983 323.584 516.898 346.948L518.674 347.867ZM537.009 276.944C537.009 253.009 530.888 229.23 518.674 205.616L516.898 206.535C528.982 229.897 535.009 253.364 535.009 276.944H537.009ZM517.786 207.076H594.324V205.076H517.786V207.076ZM409.589 210.261C400.989 200.853 395.999 192.775 394.437 186.008L392.488 186.457C394.166 193.729 399.436 202.119 408.113 211.61L409.589 210.261ZM394.446 186.051C393.141 179.002 394.451 173.096 398.297 168.224L396.727 166.985C392.474 172.372 391.085 178.884 392.479 186.415L394.446 186.051ZM398.293 168.229C402.473 163.004 409.332 158.226 418.976 153.94L418.164 152.112C408.37 156.465 401.191 161.406 396.731 166.98L398.293 168.229ZM418.97 153.942C429.439 149.379 440.857 145.617 453.225 142.659L452.76 140.714C440.29 143.696 428.759 147.493 418.171 152.109L418.97 153.942ZM453.22 142.66C465.888 139.696 479.233 137 493.254 134.573L492.913 132.602C478.857 135.035 465.474 137.738 452.764 140.713L453.22 142.66ZM493.083 165.389C470.634 165.389 452.843 167.281 439.753 171.099L440.313 173.019C453.141 169.278 470.717 167.389 493.083 167.389V165.389ZM439.767 171.095C433.362 172.867 428.483 175.074 425.223 177.767C421.929 180.488 420.256 183.739 420.406 187.487L422.404 187.408C422.284 184.407 423.581 181.718 426.496 179.309C429.445 176.873 434.016 174.761 440.3 173.023L439.767 171.095ZM420.408 187.527C420.706 191.255 423.032 195.113 427.082 199.095C431.149 203.092 437.067 207.326 444.797 211.801L445.799 210.07C438.14 205.636 432.382 201.5 428.484 197.668C424.57 193.82 422.644 190.389 422.402 187.368L420.408 187.527ZM445.298 209.935H408.851V211.935H445.298V209.935ZM538.494 206.964C546.086 203.032 551.904 199.31 555.905 195.791C559.88 192.296 562.213 188.871 562.518 185.513L560.526 185.332C560.291 187.914 558.439 190.9 554.585 194.29C550.757 197.655 545.101 201.29 537.574 205.188L538.494 206.964ZM562.518 185.509C562.823 182.005 561.305 178.97 558.205 176.447C555.143 173.954 550.497 171.918 544.366 170.283L543.851 172.215C549.869 173.82 554.2 175.766 556.942 177.998C559.647 180.199 560.761 182.631 560.526 185.336L562.518 185.509ZM544.366 170.283C532.094 167.01 514.984 165.389 493.083 165.389V167.389C514.918 167.389 531.826 169.009 543.851 172.215L544.366 170.283ZM492.91 134.572C506.66 136.999 519.734 139.695 532.132 142.659L532.597 140.714C520.157 137.739 507.044 135.036 493.257 132.603L492.91 134.572ZM532.132 142.659C544.508 145.619 556.07 149.249 566.82 153.549L567.563 151.692C556.715 147.353 545.059 143.694 532.597 140.714L532.132 142.659ZM566.788 153.536C575.901 157.556 582.057 161.921 585.414 166.57L587.035 165.399C583.373 160.329 576.84 155.784 567.595 151.706L566.788 153.536ZM585.435 166.598C589.003 171.185 590.051 176.668 588.492 183.164L590.437 183.631C592.117 176.629 591.006 170.503 587.014 165.371L585.435 166.598ZM588.494 183.155C586.939 189.376 582.093 196.78 573.763 205.38L575.199 206.772C583.607 198.093 588.75 190.378 590.434 183.64L588.494 183.155ZM574.481 205.076H538.034V207.076H574.481V205.076ZM436.422 288.569C428.972 291.55 423.105 294.377 418.848 297.054C414.633 299.706 411.832 302.31 410.761 304.911L412.611 305.672C413.429 303.684 415.759 301.36 419.913 298.747C424.025 296.161 429.767 293.386 437.165 290.426L436.422 288.569ZM410.77 304.891C410.219 306.15 410.085 307.422 410.448 308.661C410.806 309.883 411.617 310.967 412.764 311.93C415.033 313.832 418.823 315.429 423.985 316.788L424.494 314.853C419.398 313.512 415.966 312.005 414.05 310.397C413.105 309.605 412.583 308.833 412.367 308.098C412.156 307.379 412.208 306.592 412.602 305.692L410.77 304.891ZM424.009 316.794C434.384 319.251 449.596 320.465 469.596 320.465V318.465C449.639 318.465 434.614 317.25 424.47 314.847L424.009 316.794ZM469.803 353.314C460.905 351.426 452.143 349.404 443.516 347.247L443.03 349.188C451.682 351.35 460.467 353.378 469.388 355.27L469.803 353.314ZM443.487 347.241C434.869 345.356 427.067 343.338 420.079 341.187L419.491 343.099C426.542 345.268 434.398 347.3 443.059 349.194L443.487 347.241ZM420.079 341.187C413.101 339.04 406.392 336.491 399.954 333.54L399.12 335.358C405.641 338.346 412.431 340.927 419.491 343.099L420.079 341.187ZM399.943 333.535C392.726 330.327 388.089 326.789 385.816 323L384.101 324.029C386.687 328.34 391.77 332.091 399.131 335.363L399.943 333.535ZM385.83 323.025C383.575 319.016 383.413 314.48 385.482 309.308L383.625 308.565C381.375 314.191 381.482 319.374 384.087 324.005L385.83 323.025ZM385.473 309.33C387.817 303.86 392.954 297.497 401.016 290.241L399.678 288.755C391.541 296.078 386.149 302.674 383.634 308.542L385.473 309.33ZM401.002 288.742C392.938 281.753 387.956 275.672 385.887 270.498L384.03 271.241C386.28 276.867 391.558 283.204 399.692 290.254L401.002 288.742ZM385.893 270.514C383.808 265.042 383.992 260.52 386.221 256.806L384.506 255.777C381.875 260.161 381.789 265.359 384.024 271.226L385.893 270.514ZM386.195 256.846C388.743 253.025 393.537 249.478 400.753 246.271L399.941 244.443C392.578 247.716 387.384 251.458 384.531 255.736L386.195 256.846ZM400.764 246.266C407.192 243.32 413.888 240.909 420.855 239.033L420.335 237.102C413.263 239.006 406.461 241.455 399.93 244.448L400.764 246.266ZM420.879 239.027C428.145 236.874 435.953 234.854 444.303 232.969L443.863 231.018C435.475 232.912 427.624 234.942 420.311 237.109L420.879 239.027ZM444.297 232.97C452.932 231.081 461.837 229.192 471.012 227.303L470.609 225.344C461.426 227.235 452.513 229.126 443.869 231.016L444.297 232.97ZM470.81 258.936C450.542 258.936 435.194 260.15 424.819 262.607L425.28 264.553C435.423 262.151 450.583 260.936 470.81 260.936V258.936ZM424.819 262.607C419.652 263.831 415.825 265.358 413.485 267.259C412.302 268.22 411.454 269.313 411.041 270.553C410.624 271.806 410.68 273.116 411.148 274.442L413.034 273.777C412.692 272.808 412.681 271.958 412.938 271.186C413.2 270.401 413.77 269.604 414.746 268.811C416.726 267.203 420.189 265.759 425.28 264.553L424.819 262.607ZM411.175 274.51C412.25 276.968 415.015 279.466 419.155 282.045C423.341 284.652 429.102 287.444 436.416 290.424L437.171 288.572C429.906 285.612 424.261 282.87 420.213 280.347C416.119 277.797 413.822 275.571 413.007 273.709L411.175 274.51ZM699.956 243.731C692.348 260.576 690.096 275.005 693.424 286.932L695.351 286.394C692.2 275.103 694.267 261.186 701.778 244.554L699.956 243.731ZM693.426 286.938C696.753 298.582 704.524 307.428 716.618 313.475L717.513 311.686C705.849 305.855 698.502 297.422 695.349 286.389L693.426 286.938ZM716.626 313.479C728.953 319.506 744.505 322.49 763.231 322.49V320.49C744.701 320.49 729.475 317.535 717.505 311.682L716.626 313.479ZM763.381 353.303C754.514 351.96 745.918 350.079 737.592 347.662L737.035 349.583C745.448 352.025 754.13 353.924 763.081 355.281L763.381 353.303ZM737.592 347.662C729.267 345.245 721.211 342.291 713.425 338.801L712.607 340.626C720.479 344.155 728.622 347.14 737.035 349.583L737.592 347.662ZM713.439 338.807C701.394 333.186 692.647 326.4 687.108 318.487L685.469 319.634C691.269 327.919 700.339 334.901 712.593 340.619L713.439 338.807ZM687.108 318.487C681.605 310.626 679.335 300.617 680.4 288.37L678.408 288.196C677.313 300.787 679.633 311.296 685.469 319.634L687.108 318.487ZM680.398 288.391C681.726 276.177 687.45 261.608 697.674 244.659L695.961 243.626C685.666 260.693 679.782 275.551 678.41 288.175L680.398 288.391ZM697.674 243.626C687.45 226.676 681.726 212.107 680.398 199.893L678.41 200.109C679.782 212.733 685.666 227.591 695.961 244.659L697.674 243.626ZM680.4 199.915C679.335 187.667 681.605 177.659 687.108 169.798L685.469 168.651C679.633 176.988 677.313 187.498 678.408 200.088L680.4 199.915ZM687.108 169.798C692.647 161.884 701.394 155.098 713.439 149.477L712.593 147.665C700.339 153.383 691.269 160.365 685.469 168.651L687.108 169.798ZM713.425 149.484C721.211 145.993 729.267 143.039 737.592 140.622L737.035 138.702C728.622 141.144 720.479 144.13 712.607 147.659L713.425 149.484ZM737.592 140.622C745.918 138.205 754.514 136.325 763.381 134.981L763.081 133.004C754.13 134.36 745.448 136.259 737.035 138.702L737.592 140.622ZM763.231 165.794C744.505 165.794 728.953 168.779 716.626 174.805L717.505 176.602C729.475 170.75 744.701 167.794 763.231 167.794V165.794ZM716.618 174.809C704.515 180.861 696.748 189.847 693.424 201.757L695.351 202.295C698.506 190.988 705.858 182.426 717.513 176.598L716.618 174.809ZM693.426 201.751C690.094 213.415 692.35 227.714 699.956 244.554L701.778 243.731C694.265 227.094 692.202 213.315 695.349 202.301L693.426 201.751ZM855.536 244.69C865.203 259.459 870.092 272.503 870.356 283.852L872.356 283.805C872.08 271.936 866.98 258.523 857.209 243.595L855.536 244.69ZM870.357 283.876C870.887 294.996 867.979 304.612 861.656 312.779L863.238 314.003C869.874 305.431 872.905 295.339 872.355 283.781L870.357 283.876ZM861.653 312.782C855.574 320.712 846.007 327.78 832.865 333.949L833.714 335.759C847.03 329.509 856.901 322.268 863.24 313.999L861.653 312.782ZM832.879 333.942C822.13 338.779 810.84 342.811 799.01 346.038L799.536 347.967C811.463 344.714 822.851 340.647 833.7 335.766L832.879 333.942ZM799.025 346.034C787.45 348.995 775.468 351.418 763.081 353.303L763.382 355.281C775.832 353.386 787.878 350.95 799.521 347.971L799.025 346.034ZM763.231 322.49C787.06 322.49 806.503 319.513 821.512 313.509L820.769 311.652C806.082 317.527 786.918 320.49 763.231 320.49V322.49ZM821.526 313.503C836.572 307.212 844.658 298.042 845.222 285.9L843.225 285.807C842.709 296.883 835.407 305.531 820.755 311.658L821.526 313.503ZM845.221 285.921C846.064 273.555 837.647 259.368 820.609 243.412L819.242 244.872C836.221 260.773 844.003 274.394 843.226 285.785L845.221 285.921ZM820.609 244.872C837.64 228.922 846.065 214.868 845.221 202.766L843.226 202.906C844.001 214.022 836.228 227.505 819.242 243.412L820.609 244.872ZM845.222 202.791C844.658 190.381 836.576 181.206 821.512 175.18L820.769 177.037C835.403 182.89 842.709 191.533 843.225 202.881L845.222 202.791ZM821.526 175.186C806.512 168.907 787.064 165.794 763.231 165.794V167.794C786.914 167.794 806.072 170.891 820.755 177.031L821.526 175.186ZM763.081 134.981C775.461 136.865 787.436 139.422 799.004 142.65L799.542 140.724C787.892 137.473 775.839 134.899 763.382 133.004L763.081 134.981ZM799.03 142.657C810.854 145.613 822.136 149.508 832.879 154.343L833.7 152.519C822.845 147.634 811.45 143.7 799.515 140.717L799.03 142.657ZM832.865 154.336C846.001 160.502 855.565 167.701 861.644 175.894L863.25 174.703C856.91 166.158 847.036 158.778 833.714 152.525L832.865 154.336ZM861.666 175.923C867.975 183.81 870.887 193.417 870.357 204.814L872.355 204.907C872.905 193.087 869.877 182.986 863.228 174.674L861.666 175.923ZM870.356 204.837C870.093 215.912 865.206 228.821 855.536 243.595L857.209 244.69C866.978 229.766 872.079 216.487 872.356 204.885L870.356 204.837ZM733.571 140.458C711.379 188.631 700.272 236.694 700.272 284.638H702.272C702.272 237.012 713.303 189.234 735.387 141.295L733.571 140.458ZM700.272 284.638C700.272 332.583 711.379 380.646 733.571 428.818L735.387 427.982C713.303 380.043 702.272 332.265 702.272 284.638H700.272ZM734.479 427.4H630.808V429.4H734.479V427.4ZM631.719 428.814C653.64 380.642 664.61 332.581 664.61 284.638H662.61C662.61 332.267 651.713 380.047 629.898 427.986L631.719 428.814ZM664.61 284.638C664.61 236.696 653.64 188.634 631.719 140.463L629.898 141.291C651.713 189.23 662.61 237.01 662.61 284.638H664.61ZM630.808 141.877H734.479V139.877H630.808V141.877ZM976.785 243.731C969.178 260.576 966.926 275.005 970.254 286.932L972.18 286.394C969.029 275.103 971.097 261.186 978.608 244.554L976.785 243.731ZM970.256 286.938C973.582 298.582 981.353 307.428 993.448 313.475L994.342 311.686C982.679 305.855 975.331 297.422 972.179 286.389L970.256 286.938ZM993.456 313.479C1005.78 319.506 1021.33 322.49 1040.06 322.49V320.49C1021.53 320.49 1006.3 317.535 994.334 311.682L993.456 313.479ZM1040.21 353.303C1031.34 351.96 1022.75 350.079 1014.42 347.662L1013.86 349.583C1022.28 352.025 1030.96 353.924 1039.91 355.281L1040.21 353.303ZM1014.42 347.662C1006.1 345.245 998.041 342.291 990.255 338.801L989.436 340.626C997.309 344.155 1005.45 347.14 1013.86 349.583L1014.42 347.662ZM990.268 338.807C978.224 333.186 969.476 326.4 963.937 318.487L962.299 319.634C968.098 327.919 977.169 334.901 989.423 340.619L990.268 338.807ZM963.937 318.487C958.435 310.626 956.165 300.617 957.23 288.37L955.237 288.196C954.143 300.787 956.462 311.296 962.299 319.634L963.937 318.487ZM957.228 288.391C958.555 276.177 964.28 261.608 974.503 244.659L972.791 243.626C962.496 260.693 956.612 275.551 955.239 288.175L957.228 288.391ZM974.503 243.626C964.28 226.676 958.555 212.107 957.228 199.893L955.239 200.109C956.612 212.733 962.496 227.591 972.791 244.659L974.503 243.626ZM957.23 199.915C956.165 187.667 958.435 177.659 963.937 169.798L962.299 168.651C956.462 176.988 954.143 187.498 955.237 200.088L957.23 199.915ZM963.937 169.798C969.476 161.884 978.224 155.098 990.268 149.477L989.423 147.665C977.169 153.383 968.098 160.365 962.299 168.651L963.937 169.798ZM990.255 149.484C998.041 145.993 1006.1 143.039 1014.42 140.622L1013.86 138.702C1005.45 141.144 997.309 144.13 989.436 147.659L990.255 149.484ZM1014.42 140.622C1022.75 138.205 1031.34 136.325 1040.21 134.981L1039.91 133.004C1030.96 134.36 1022.28 136.259 1013.86 138.702L1014.42 140.622ZM1040.06 165.794C1021.33 165.794 1005.78 168.779 993.456 174.805L994.334 176.602C1006.3 170.75 1021.53 167.794 1040.06 167.794V165.794ZM993.448 174.809C981.345 180.861 973.578 189.847 970.254 201.757L972.18 202.295C975.336 190.988 982.687 182.426 994.342 176.598L993.448 174.809ZM970.256 201.751C966.923 213.415 969.18 227.714 976.785 244.554L978.608 243.731C971.094 227.094 969.032 213.315 972.179 202.301L970.256 201.751ZM1132.37 244.69C1142.03 259.459 1146.92 272.503 1147.19 283.852L1149.19 283.805C1148.91 271.936 1143.81 258.523 1134.04 243.595L1132.37 244.69ZM1147.19 283.876C1147.72 294.996 1144.81 304.612 1138.49 312.779L1140.07 314.003C1146.7 305.431 1149.73 295.339 1149.18 283.781L1147.19 283.876ZM1138.48 312.782C1132.4 320.712 1122.84 327.78 1109.69 333.949L1110.54 335.759C1123.86 329.509 1133.73 322.268 1140.07 313.999L1138.48 312.782ZM1109.71 333.942C1098.96 338.779 1087.67 342.811 1075.84 346.038L1076.37 347.967C1088.29 344.714 1099.68 340.647 1110.53 335.766L1109.71 333.942ZM1075.85 346.034C1064.28 348.995 1052.3 351.418 1039.91 353.303L1040.21 355.281C1052.66 353.386 1064.71 350.95 1076.35 347.971L1075.85 346.034ZM1040.06 322.49C1063.89 322.49 1083.33 319.513 1098.34 313.509L1097.6 311.652C1082.91 317.527 1063.75 320.49 1040.06 320.49V322.49ZM1098.36 313.503C1113.4 307.212 1121.49 298.042 1122.05 285.9L1120.05 285.807C1119.54 296.883 1112.24 305.531 1097.58 311.658L1098.36 313.503ZM1122.05 285.921C1122.89 273.555 1114.48 259.368 1097.44 243.412L1096.07 244.872C1113.05 260.773 1120.83 274.394 1120.06 285.785L1122.05 285.921ZM1097.44 244.872C1114.47 228.922 1122.89 214.868 1122.05 202.766L1120.06 202.906C1120.83 214.022 1113.06 227.505 1096.07 243.412L1097.44 244.872ZM1122.05 202.791C1121.49 190.381 1113.41 181.206 1098.34 175.18L1097.6 177.037C1112.23 182.89 1119.54 191.533 1120.05 202.881L1122.05 202.791ZM1098.36 175.186C1083.34 168.907 1063.89 165.794 1040.06 165.794V167.794C1063.74 167.794 1082.9 170.891 1097.58 177.031L1098.36 175.186ZM1039.91 134.981C1052.29 136.865 1064.27 139.422 1075.83 142.65L1076.37 140.724C1064.72 137.473 1052.67 134.899 1040.21 133.004L1039.91 134.981ZM1075.86 142.657C1087.68 145.613 1098.97 149.508 1109.71 154.343L1110.53 152.519C1099.67 147.634 1088.28 143.7 1076.34 140.717L1075.86 142.657ZM1109.69 154.336C1122.83 160.502 1132.39 167.701 1138.47 175.894L1140.08 174.703C1133.74 166.158 1123.87 158.778 1110.54 152.525L1109.69 154.336ZM1138.5 175.923C1144.8 183.81 1147.72 193.417 1147.19 204.814L1149.18 204.907C1149.73 193.087 1146.71 182.986 1140.06 174.674L1138.5 175.923ZM1147.19 204.837C1146.92 215.912 1142.04 228.821 1132.37 243.595L1134.04 244.69C1143.81 229.766 1148.91 216.487 1149.19 204.885L1147.19 204.837ZM1010.4 140.458C988.208 188.631 977.102 236.694 977.102 284.638H979.102C979.102 237.012 990.133 189.234 1012.22 141.295L1010.4 140.458ZM977.102 284.638C977.102 332.583 988.208 380.646 1010.4 428.818L1012.22 427.982C990.133 380.043 979.102 332.265 979.102 284.638H977.102ZM1011.31 427.4H907.638V429.4H1011.31V427.4ZM908.548 428.814C930.469 380.642 941.44 332.581 941.44 284.638H939.44C939.44 332.267 928.543 380.047 906.728 427.986L908.548 428.814ZM941.44 284.638C941.44 236.696 930.469 188.634 908.548 140.463L906.728 141.291C928.543 189.23 939.44 237.01 939.44 284.638H941.44ZM907.638 141.877H1011.31V139.877H907.638V141.877ZM1344.62 208.074C1353.78 215.348 1359.42 221.438 1361.75 226.347L1363.55 225.491C1361.02 220.141 1355.06 213.812 1345.86 206.508L1344.62 208.074ZM1361.78 226.405C1363.07 228.727 1363.64 230.808 1363.58 232.67C1363.52 234.514 1362.84 236.226 1361.48 237.827L1363.01 239.119C1364.62 237.21 1365.5 235.074 1365.57 232.734C1365.65 230.411 1364.94 227.971 1363.53 225.433L1361.78 226.405ZM1361.51 237.797C1358.73 240.824 1353.56 243.462 1345.78 245.608L1346.31 247.536C1354.19 245.362 1359.82 242.601 1362.98 239.148L1361.51 237.797ZM1345.76 245.616C1336.09 248.569 1325.2 250.989 1313.09 252.873L1313.4 254.849C1325.59 252.954 1336.57 250.514 1346.34 247.528L1345.76 245.616ZM1313.09 252.874C1301.21 254.764 1288.79 256.789 1275.82 258.949L1276.15 260.922C1289.11 258.763 1301.53 256.738 1313.4 254.849L1313.09 252.874ZM1275.99 227.324C1296.52 227.324 1312.61 226.919 1324.25 226.107L1324.11 224.111C1312.54 224.919 1296.5 225.324 1275.99 225.324V227.324ZM1324.27 226.105C1330.11 225.562 1334.98 224.814 1338.9 223.853C1342.79 222.896 1345.8 221.711 1347.84 220.253L1346.68 218.626C1344.94 219.868 1342.22 220.978 1338.42 221.911C1334.64 222.84 1329.86 223.576 1324.09 224.113L1324.27 226.105ZM1347.82 220.272C1348.94 219.522 1349.78 218.619 1350.22 217.533C1350.66 216.433 1350.63 215.257 1350.24 214.061C1349.46 211.744 1347.24 209.229 1343.84 206.51L1342.59 208.072C1345.94 210.752 1347.76 212.961 1348.34 214.694C1348.62 215.523 1348.59 216.203 1348.36 216.79C1348.12 217.392 1347.61 218.007 1346.71 218.607L1347.82 220.272ZM1343.21 208.291H1345.24V206.291H1343.21V208.291ZM1344.42 259.301C1354.37 273.286 1360.08 285.286 1361.66 295.323L1363.64 295.011C1361.98 284.531 1356.08 272.233 1346.05 258.141L1344.42 259.301ZM1361.66 295.323C1363.25 305.378 1361.52 313.59 1356.59 320.075L1358.18 321.285C1363.51 314.272 1365.29 305.475 1363.64 295.011L1361.66 295.323ZM1356.59 320.075C1351.59 326.65 1343.65 332.502 1332.67 337.591L1333.51 339.406C1344.67 334.236 1352.92 328.209 1358.18 321.285L1356.59 320.075ZM1332.71 337.574C1323.57 341.335 1314.17 344.424 1304.5 346.842L1304.98 348.783C1314.75 346.341 1324.25 343.221 1333.47 339.423L1332.71 337.574ZM1304.5 346.842C1294.8 349.267 1284.83 351.422 1274.59 353.309L1274.96 355.275C1285.23 353.382 1295.24 351.218 1304.98 348.783L1304.5 346.842ZM1274.77 320.465C1294.28 320.465 1310.46 318.299 1323.29 313.932L1322.64 312.039C1310.09 316.311 1294.15 318.465 1274.77 318.465V320.465ZM1323.28 313.934C1336.4 309.563 1345.06 302.801 1348.99 293.533L1347.15 292.752C1343.52 301.303 1335.45 307.77 1322.65 312.037L1323.28 313.934ZM1348.99 293.546C1353.22 283.961 1351.45 272.141 1344.1 258.253L1342.33 259.189C1349.56 272.838 1351.03 283.966 1347.16 292.739L1348.99 293.546ZM1343.21 259.721H1345.24V257.721H1343.21V259.721ZM1398.61 205.624C1386.67 229.237 1380.68 253.013 1380.68 276.944H1382.68C1382.68 253.359 1388.58 229.89 1400.39 206.527L1398.61 205.624ZM1380.68 276.944C1380.68 300.607 1386.67 324.248 1398.61 347.859L1400.39 346.956C1388.58 323.591 1382.68 300.257 1382.68 276.944H1380.68ZM1399.5 346.408H1322.96V348.408H1399.5V346.408ZM1323.85 347.867C1336.07 324.255 1342.19 300.611 1342.19 276.944H1340.19C1340.19 300.253 1334.16 323.584 1322.08 346.948L1323.85 347.867ZM1342.19 276.944C1342.19 253.009 1336.07 229.23 1323.85 205.616L1322.08 206.535C1334.16 229.897 1340.19 253.364 1340.19 276.944H1342.19ZM1322.96 207.076H1399.5V205.076H1322.96V207.076ZM1214.77 210.261C1206.17 200.853 1201.18 192.775 1199.62 186.008L1197.67 186.457C1199.35 193.729 1204.61 202.119 1213.29 211.61L1214.77 210.261ZM1199.62 186.051C1198.32 179.002 1199.63 173.096 1203.48 168.224L1201.91 166.985C1197.65 172.372 1196.26 178.884 1197.66 186.415L1199.62 186.051ZM1203.47 168.229C1207.65 163.004 1214.51 158.226 1224.16 153.94L1223.34 152.112C1213.55 156.465 1206.37 161.406 1201.91 166.98L1203.47 168.229ZM1224.15 153.942C1234.62 149.379 1246.04 145.617 1258.4 142.659L1257.94 140.714C1245.47 143.696 1233.94 147.493 1223.35 152.109L1224.15 153.942ZM1258.4 142.66C1271.07 139.696 1284.41 137 1298.43 134.573L1298.09 132.602C1284.04 135.035 1270.65 137.738 1257.94 140.713L1258.4 142.66ZM1298.26 165.389C1275.81 165.389 1258.02 167.281 1244.93 171.099L1245.49 173.019C1258.32 169.278 1275.9 167.389 1298.26 167.389V165.389ZM1244.95 171.095C1238.54 172.867 1233.66 175.074 1230.4 177.767C1227.11 180.488 1225.43 183.739 1225.58 187.487L1227.58 187.408C1227.46 184.407 1228.76 181.718 1231.68 179.309C1234.62 176.873 1239.19 174.761 1245.48 173.023L1244.95 171.095ZM1225.59 187.527C1225.89 191.255 1228.21 195.113 1232.26 199.095C1236.33 203.092 1242.25 207.326 1249.98 211.801L1250.98 210.07C1243.32 205.636 1237.56 201.5 1233.66 197.668C1229.75 193.82 1227.82 190.389 1227.58 187.368L1225.59 187.527ZM1250.48 209.935H1214.03V211.935H1250.48V209.935ZM1343.67 206.964C1351.26 203.032 1357.08 199.31 1361.08 195.791C1365.06 192.296 1367.39 188.871 1367.7 185.513L1365.7 185.332C1365.47 187.914 1363.62 190.9 1359.76 194.29C1355.94 197.655 1350.28 201.29 1342.75 205.188L1343.67 206.964ZM1367.7 185.509C1368 182.005 1366.48 178.97 1363.38 176.447C1360.32 173.954 1355.68 171.918 1349.55 170.283L1349.03 172.215C1355.05 173.82 1359.38 175.766 1362.12 177.998C1364.83 180.199 1365.94 182.631 1365.7 185.336L1367.7 185.509ZM1349.55 170.283C1337.27 167.01 1320.16 165.389 1298.26 165.389V167.389C1320.1 167.389 1337 169.009 1349.03 172.215L1349.55 170.283ZM1298.09 134.572C1311.84 136.999 1324.91 139.695 1337.31 142.659L1337.78 140.714C1325.34 137.739 1312.22 135.036 1298.44 132.603L1298.09 134.572ZM1337.31 142.659C1349.69 145.619 1361.25 149.249 1372 153.549L1372.74 151.692C1361.89 147.353 1350.24 143.694 1337.78 140.714L1337.31 142.659ZM1371.97 153.536C1381.08 157.556 1387.24 161.921 1390.59 166.57L1392.21 165.399C1388.55 160.329 1382.02 155.784 1372.77 151.706L1371.97 153.536ZM1390.61 166.598C1394.18 171.185 1395.23 176.668 1393.67 183.164L1395.62 183.631C1397.3 176.629 1396.18 170.503 1392.19 165.371L1390.61 166.598ZM1393.67 183.155C1392.12 189.376 1387.27 196.78 1378.94 205.38L1380.38 206.772C1388.79 198.093 1393.93 190.378 1395.61 183.64L1393.67 183.155ZM1379.66 205.076H1343.21V207.076H1379.66V205.076ZM1241.6 288.569C1234.15 291.55 1228.28 294.377 1224.03 297.054C1219.81 299.706 1217.01 302.31 1215.94 304.911L1217.79 305.672C1218.61 303.684 1220.94 301.36 1225.09 298.747C1229.2 296.161 1234.95 293.386 1242.34 290.426L1241.6 288.569ZM1215.95 304.891C1215.4 306.15 1215.26 307.422 1215.63 308.661C1215.98 309.883 1216.8 310.967 1217.94 311.93C1220.21 313.832 1224 315.429 1229.16 316.788L1229.67 314.853C1224.58 313.512 1221.14 312.005 1219.23 310.397C1218.28 309.605 1217.76 308.833 1217.55 308.098C1217.34 307.379 1217.39 306.592 1217.78 305.692L1215.95 304.891ZM1229.19 316.794C1239.56 319.251 1254.77 320.465 1274.77 320.465V318.465C1254.82 318.465 1239.79 317.25 1229.65 314.847L1229.19 316.794ZM1274.98 353.314C1266.08 351.426 1257.32 349.404 1248.69 347.247L1248.21 349.188C1256.86 351.35 1265.65 353.378 1274.57 355.27L1274.98 353.314ZM1248.67 347.241C1240.05 345.356 1232.25 343.338 1225.26 341.187L1224.67 343.099C1231.72 345.268 1239.58 347.3 1248.24 349.194L1248.67 347.241ZM1225.26 341.187C1218.28 339.04 1211.57 336.491 1205.13 333.54L1204.3 335.358C1210.82 338.346 1217.61 340.927 1224.67 343.099L1225.26 341.187ZM1205.12 333.535C1197.9 330.327 1193.27 326.789 1190.99 323L1189.28 324.029C1191.87 328.34 1196.95 332.091 1204.31 335.363L1205.12 333.535ZM1191.01 323.025C1188.75 319.016 1188.59 314.48 1190.66 309.308L1188.8 308.565C1186.55 314.191 1186.66 319.374 1189.27 324.005L1191.01 323.025ZM1190.65 309.33C1193 303.86 1198.13 297.497 1206.19 290.241L1204.86 288.755C1196.72 296.078 1191.33 302.674 1188.81 308.542L1190.65 309.33ZM1206.18 288.742C1198.12 281.753 1193.14 275.672 1191.07 270.498L1189.21 271.241C1191.46 276.867 1196.74 283.204 1204.87 290.254L1206.18 288.742ZM1191.07 270.514C1188.99 265.042 1189.17 260.52 1191.4 256.806L1189.68 255.777C1187.05 260.161 1186.97 265.358 1189.2 271.226L1191.07 270.514ZM1191.37 256.846C1193.92 253.025 1198.72 249.478 1205.93 246.271L1205.12 244.443C1197.76 247.716 1192.56 251.458 1189.71 255.736L1191.37 256.846ZM1205.94 246.266C1212.37 243.32 1219.07 240.909 1226.03 239.033L1225.51 237.102C1218.44 239.006 1211.64 241.455 1205.11 244.448L1205.94 246.266ZM1226.06 239.027C1233.32 236.874 1241.13 234.854 1249.48 232.969L1249.04 231.018C1240.65 232.912 1232.8 234.942 1225.49 237.109L1226.06 239.027ZM1249.48 232.97C1258.11 231.081 1267.02 229.192 1276.19 227.303L1275.79 225.344C1266.6 227.235 1257.69 229.126 1249.05 231.016L1249.48 232.97ZM1275.99 258.936C1255.72 258.936 1240.37 260.15 1230 262.607L1230.46 264.553C1240.6 262.151 1255.76 260.936 1275.99 260.936V258.936ZM1230 262.607C1224.83 263.831 1221 265.358 1218.66 267.259C1217.48 268.22 1216.63 269.313 1216.22 270.553C1215.8 271.806 1215.86 273.116 1216.33 274.442L1218.21 273.777C1217.87 272.808 1217.86 271.958 1218.12 271.186C1218.38 270.401 1218.95 269.604 1219.93 268.811C1221.9 267.203 1225.37 265.759 1230.46 264.553L1230 262.607ZM1216.35 274.51C1217.43 276.968 1220.19 279.466 1224.33 282.045C1228.52 284.652 1234.28 287.444 1241.59 290.424L1242.35 288.572C1235.08 285.612 1229.44 282.87 1225.39 280.347C1221.3 277.797 1219 275.571 1218.19 273.709L1216.35 274.51Z" fill="black" mask="url(#path-1-inside-1)"/>
</svg>
